<svg xmlns="http://www.w3.org/2000/svg" viewBox="0 0 48 48">
  <path fill="#7B2E8C" fill-rule="evenodd" d="M24 3A21 21 0 0 1 45 24V40Q45 45 40 45H24A21 21 0 0 1 3 24A21 21 0 0 1 24 3Z M24 11.5A12.5 12.5 0 1 0 36.5 24 12.5 12.5 0 0 0 24 11.5Z"/>
  <path fill="#29ABE2" d="M23.3 23.3L23.3 17.5A5.8 5.8 0 0 0 17.5 23.3Z"/><path fill="#EC008C" d="M24.7 23.3L24.7 17.5A5.8 5.8 0 0 1 30.5 23.3Z"/><path fill="#FFE500" d="M23.3 24.7L17.5 24.7A5.8 5.8 0 0 0 23.3 30.5Z"/><path fill="#131313" d="M24.7 24.7L30.5 24.7A5.8 5.8 0 0 1 24.7 30.5Z"/>
</svg>
